name ./resultDataOpenSim/trcMotMarkerGrf/sub10/grf-04-07.mot
datacolumns 19
datarows 20
range 0.56000000 0.63600000
endheader

                time	     ground_force_vx	     ground_force_vy	     ground_force_vz	     ground_force_px	     ground_force_py	     ground_force_pz	   l_ground_force_vx	   l_ground_force_vy	   l_ground_force_vz	   l_ground_force_px	   l_ground_force_py	   l_ground_force_pz	     ground_torque_x	     ground_torque_y	     ground_torque_z	   l_ground_torque_x	   l_ground_torque_y	   l_ground_torque_z	
          0.56000000	         30.13910262	        462.76595442	        -13.39420870	         -0.80171638	          0.00000000	          0.01854159	          0.00000000	          0.00000000	          0.00000000	          0.00000000	          0.00000000	          0.00000000	          0.00000000	          1.46558244	          0.00000000	          0.00000000	          0.00000000	          0.00000000	
          0.56400000	         32.45316274	        465.04417191	        -14.12867127	         -0.80094670	          0.00000000	          0.01865188	          0.00000000	          0.00000000	          0.00000000	          0.00000000	          0.00000000	          0.00000000	          0.00000000	          1.47922982	          0.00000000	          0.00000000	          0.00000000	          0.00000000	
          0.56800000	         34.82898847	        467.42900016	        -15.09843224	         -0.80006848	          0.00000000	          0.01875195	          0.00000000	          0.00000000	          0.00000000	          0.00000000	          0.00000000	          0.00000000	          0.00000000	          1.48227635	          0.00000000	          0.00000000	          0.00000000	          0.00000000	
          0.57200000	         37.22876547	        469.98326029	        -16.22665945	         -0.79907639	          0.00000000	          0.01883977	          0.00000000	          0.00000000	          0.00000000	          0.00000000	          0.00000000	          0.00000000	          0.00000000	          1.47961168	          0.00000000	          0.00000000	          0.00000000	          0.00000000	
          0.57600000	         39.58297110	        472.80477655	        -17.40663967	         -0.79796168	          0.00000000	          0.01891798	          0.00000000	          0.00000000	          0.00000000	          0.00000000	          0.00000000	          0.00000000	          0.00000000	          1.47824502	          0.00000000	          0.00000000	          0.00000000	          0.00000000	
          0.58000000	         41.80599669	        475.99155682	        -18.52840887	         -0.79672282	          0.00000000	          0.01898901	          0.00000000	          0.00000000	          0.00000000	          0.00000000	          0.00000000	          0.00000000	          0.00000000	          1.48632266	          0.00000000	          0.00000000	          0.00000000	          0.00000000	
          0.58400000	         43.81820563	        479.62264013	        -19.50332977	         -0.79536864	          0.00000000	          0.01905516	          0.00000000	          0.00000000	          0.00000000	          0.00000000	          0.00000000	          0.00000000	          0.00000000	          1.51175264	          0.00000000	          0.00000000	          0.00000000	          0.00000000	
          0.58800000	         45.56424227	        483.76331335	        -20.28231475	         -0.79391070	          0.00000000	          0.01911658	          0.00000000	          0.00000000	          0.00000000	          0.00000000	          0.00000000	          0.00000000	          0.00000000	          1.56053516	          0.00000000	          0.00000000	          0.00000000	          0.00000000	
          0.59200000	         47.02138417	        488.46717161	        -20.86395595	         -0.79235822	          0.00000000	          0.01916784	          0.00000000	          0.00000000	          0.00000000	          0.00000000	          0.00000000	          0.00000000	          0.00000000	          1.63517802	          0.00000000	          0.00000000	          0.00000000	          0.00000000	
          0.59600000	         48.20094465	        493.76033614	        -21.29132105	         -0.79072429	          0.00000000	          0.01920181	          0.00000000	          0.00000000	          0.00000000	          0.00000000	          0.00000000	          0.00000000	          0.00000000	          1.73374188	          0.00000000	          0.00000000	          0.00000000	          0.00000000	
          0.60000000	         49.14456738	        499.62436843	        -21.64207345	         -0.78902333	          0.00000000	          0.01922223	          0.00000000	          0.00000000	          0.00000000	          0.00000000	          0.00000000	          0.00000000	          0.00000000	          1.84994566	          0.00000000	          0.00000000	          0.00000000	          0.00000000	
          0.60400000	         49.91405341	        506.00266948	        -22.01557813	         -0.78726571	          0.00000000	          0.01923922	          0.00000000	          0.00000000	          0.00000000	          0.00000000	          0.00000000	          0.00000000	          0.00000000	          1.97439601	          0.00000000	          0.00000000	          0.00000000	          0.00000000	
          0.60800000	         50.57731630	        512.82395405	        -22.51519130	         -0.78546753	          0.00000000	          0.01925246	          0.00000000	          0.00000000	          0.00000000	          0.00000000	          0.00000000	          0.00000000	          0.00000000	          2.09657711	          0.00000000	          0.00000000	          0.00000000	          0.00000000	
          0.61200000	         51.19548637	        520.01862269	        -23.22655640	         -0.78363232	          0.00000000	          0.01925733	          0.00000000	          0.00000000	          0.00000000	          0.00000000	          0.00000000	          0.00000000	          0.00000000	          2.20699209	          0.00000000	          0.00000000	          0.00000000	          0.00000000	
          0.61600000	         51.81639132	        527.52791621	        -24.19817054	         -0.78175742	          0.00000000	          0.01926082	          0.00000000	          0.00000000	          0.00000000	          0.00000000	          0.00000000	          0.00000000	          0.00000000	          2.29890897	          0.00000000	          0.00000000	          0.00000000	          0.00000000	
          0.62000000	         52.47599413	        535.31156069	        -25.42997619	         -0.77984402	          0.00000000	          0.01927060	          0.00000000	          0.00000000	          0.00000000	          0.00000000	          0.00000000	          0.00000000	          0.00000000	          2.36941737	          0.00000000	          0.00000000	          0.00000000	          0.00000000	
          0.62400000	         53.20305419	        543.34956137	        -26.87223812	         -0.77789820	          0.00000000	          0.01928776	          0.00000000	          0.00000000	          0.00000000	          0.00000000	          0.00000000	          0.00000000	          0.00000000	          2.41971607	          0.00000000	          0.00000000	          0.00000000	          0.00000000	
          0.62800000	         54.02474447	        551.63897747	        -28.43458434	         -0.77594138	          0.00000000	          0.01930684	          0.00000000	          0.00000000	          0.00000000	          0.00000000	          0.00000000	          0.00000000	          0.00000000	          2.45463350	          0.00000000	          0.00000000	          0.00000000	          0.00000000	
          0.63200000	         54.97604218	        560.18563606	        -30.00333810	         -0.77400739	          0.00000000	          0.01931663	          0.00000000	          0.00000000	          0.00000000	          0.00000000	          0.00000000	          0.00000000	          0.00000000	          2.48142402	          0.00000000	          0.00000000	          0.00000000	          0.00000000	
          0.63600000	         56.11107161	        568.99436053	        -31.46332368	         -0.77212861	          0.00000000	          0.01930779	          0.00000000	          0.00000000	          0.00000000	          0.00000000	          0.00000000	          0.00000000	          0.00000000	          2.50799254	          0.00000000	          0.00000000	          0.00000000	          0.00000000	
